<?xml version="1.0" standalone="no"?>
<!DOCTYPE svg PUBLIC "-//W3C//DTD SVG 20010904//EN"
 "http://www.w3.org/TR/2001/REC-SVG-20010904/DTD/svg10.dtd">
<svg version="1.0" xmlns="http://www.w3.org/2000/svg"
 width="438.000000pt" height="150.000000pt" viewBox="0 0 438.000000 150.000000"
 preserveAspectRatio="xMidYMid meet">

<g transform="translate(0.000000,150.000000) scale(0.100000,-0.100000)"
fill="#000000" stroke="none">
<path d="M4008 1056 c-87 -31 -128 -82 -128 -156 0 -63 21 -87 109 -128 96
-43 105 -50 90 -68 -21 -25 -93 -10 -154 32 -21 14 -41 21 -44 16 -3 -5 -24
-30 -45 -56 -44 -53 -43 -55 40 -96 135 -67 311 -36 357 63 45 94 6 165 -118
215 -78 32 -91 55 -35 60 23 2 53 -6 85 -23 l50 -25 42 47 c24 27 43 53 43 58
0 28 -134 75 -209 75 -25 -1 -63 -7 -83 -14z"/>
<path d="M80 820 l0 -240 55 0 54 0 3 138 3 137 33 -84 c18 -46 42 -108 54
-138 l20 -54 46 3 47 3 51 133 c28 73 54 135 57 139 4 3 7 -57 7 -135 l0 -142
60 0 60 0 0 240 0 240 -84 0 -83 0 -53 -141 c-29 -77 -56 -136 -60 -132 -4 4
-29 68 -56 141 l-48 132 -83 0 -83 0 0 -240z"/>
<path d="M815 1046 c-59 -18 -88 -41 -116 -88 -21 -37 -24 -56 -24 -138 0 -81
3 -101 23 -135 43 -74 109 -105 228 -105 177 0 265 94 251 269 -2 36 -6 73 -8
81 -3 12 11 16 79 18 l82 3 0 -186 0 -185 65 0 65 0 0 185 0 185 79 0 79 0 -5
-99 c-5 -90 -4 -103 20 -154 36 -80 90 -110 208 -115 96 -5 145 6 197 45 95
71 109 271 25 364 -62 69 -66 69 -672 68 -402 0 -546 -3 -576 -13z m197 -125
c31 -28 33 -33 33 -100 0 -63 -3 -73 -26 -97 -52 -51 -174 -41 -204 16 -8 16
-15 53 -15 82 1 92 36 127 127 128 44 0 58 -5 85 -29z m946 -4 c24 -25 27 -35
27 -97 0 -62 -3 -72 -27 -96 -51 -51 -177 -41 -208 15 -13 25 -13 137 0 161
19 35 60 51 123 47 47 -3 63 -8 85 -30z"/>
<path d="M2152 823 l3 -238 63 -3 62 -3 0 76 0 75 44 0 44 0 41 -75 42 -75 64
0 c36 0 65 3 65 7 0 3 -18 40 -41 81 -38 69 -40 76 -23 85 37 21 63 60 70 104
12 83 -9 145 -63 180 -23 15 -55 19 -200 21 l-173 4 2 -239z m296 115 c7 -7
12 -26 12 -43 0 -47 -15 -55 -102 -55 l-78 0 0 55 0 55 78 0 c47 0 83 -5 90
-12z"/>
<path d="M2795 1048 c-21 -63 -185 -600 -185 -608 0 -6 30 -10 74 -10 l74 0
40 113 c22 61 50 145 63 185 12 39 26 72 30 72 3 0 20 -36 36 -81 l29 -80 73
81 c40 44 75 79 78 77 2 -3 -9 -55 -26 -116 l-30 -111 79 0 c66 0 80 3 84 18
3 9 31 111 61 227 31 116 58 218 61 228 5 15 -4 17 -84 17 l-88 0 -74 -86 -74
-87 -29 87 -30 86 -79 0 c-54 0 -80 -4 -83 -12z"/>
<path d="M3410 844 c-80 -119 -153 -229 -163 -245 l-19 -29 86 0 86 0 22 35
23 35 85 -2 85 -3 3 -32 3 -33 85 0 c46 0 84 4 84 8 0 4 -16 112 -35 241 -19
128 -35 234 -35 237 0 2 -37 4 -82 4 l-83 -1 -145 -215z m190 -51 l0 -43 -40
0 c-22 0 -40 3 -40 7 0 3 14 28 31 55 36 56 49 51 49 -19z"/>
</g>
</svg>
